# ProBuilder 5.0.7
# https://unity3d.com/unity/features/worldbuilding/probuilder
# 13.04.2023 14:04:01

mtllib ./FlockAgent.mtl
o FlockAgent

g Cone
v -0.5 -0.75 0
v -0.25 -0.75 -0.4330127
v 0 0.75 0
v 0 -0.75 0
v 0.25 -0.75 -0.4330127
v 0.5 -0.75 5.960464E-08
v 0.2499999 -0.75 0.4330127
v -0.2499999 -0.75 0.4330127

vt 1 0
vt 0 0
vt 0.5000001 1.732051
vt -0.5 0
vt -0.25 -0.4330127
vt 0.25 -0.4330127
vt 0.5 5.960464E-08
vt 0.2499999 0.4330127
vt -0.2499999 0.4330127

vn -0.9486833 0.3162278 3.397988E-08
vn -0.4743417 0.3162278 -0.8215839
vn 0 1 1.790897E-07
vn 0 -1 0
vn 0.4743417 0.3162278 -0.8215837
vn 0.9486833 0.3162278 1.529094E-07
vn 0.4743416 0.3162278 0.8215839
vn -0.4743416 0.3162278 0.8215839

usemtl Lit
f 3/3/3 2/2/2 1/1/1
f 1/4/4 2/5/4 4/2/4
f 3/3/3 5/2/5 2/1/2
f 2/5/4 5/6/4 4/2/4
f 3/3/3 6/2/6 5/1/5
f 5/6/4 6/7/4 4/2/4
f 3/3/3 7/2/7 6/1/6
f 6/7/4 7/8/4 4/2/4
f 3/3/3 8/2/8 7/1/7
f 7/8/4 8/9/4 4/2/4
f 3/3/3 1/2/1 8/1/8
f 8/9/4 1/4/4 4/2/4

